<svg width="24" height="24" viewBox="0 0 24 24" fill="none" xmlns="http://www.w3.org/2000/svg">
<path d="M22 8V11H16.5V16.11C14.66 16.53 13.26 18.09 13.04 20H4C3.46957 20 2.96086 19.7893 2.58579 19.4142C2.21071 19.0391 2 18.5304 2 18V6C2 4.89 2.89 4 4 4H10L12 6H20C20.5304 6 21.0391 6.21071 21.4142 6.58579C21.7893 6.96086 22 7.46957 22 8ZM18.5 13V18.21C18.1593 18.0608 17.7897 17.9895 17.418 18.0013C17.0462 18.013 16.6818 18.1076 16.3513 18.278C16.0207 18.4485 15.7324 18.6905 15.5072 18.9865C15.2821 19.2825 15.1258 19.625 15.0498 19.9891C14.9738 20.3532 14.98 20.7296 15.0679 21.0909C15.1558 21.4523 15.3232 21.7895 15.558 22.078C15.7927 22.3664 16.0889 22.5989 16.4248 22.7584C16.7608 22.9179 17.1281 23.0004 17.5 23C18.163 23 18.7989 22.7366 19.2678 22.2678C19.7366 21.7989 20 21.163 20 20.5V15H22V13H18.5Z" fill="black"/>
</svg>
