<svg width="86" height="86" viewBox="0 0 86 86" fill="none" xmlns="http://www.w3.org/2000/svg">
<path d="M24.9274 -48.1998C28.2841 -55.022 33.3373 -60.3768 41.2495 -62.3536C43.7136 -63.1306 46.6593 -63.4688 48.662 -61.8382C49.9132 -60.8196 50.5378 -59.2193 50.8763 -57.641C53.0825 -47.3342 45.3073 -37.8305 42.3194 -27.7229C41.455 -24.8 41.1246 -21.2671 43.2119 -19.0447C45.2167 -16.9108 48.5351 -16.9088 51.4626 -16.9068C59.5602 -16.8967 67.6538 -15.6909 75.4007 -13.3397C77.5687 -12.6814 79.8031 -11.8762 81.3425 -10.2134C82.769 -8.67137 83.4197 -6.57779 83.8771 -4.53051C85.2512 1.61334 85.2291 8.20811 82.8556 14.042C81.145 18.2452 78.0381 22.1928 74.0548 24.4636C70.6599 26.4001 65.375 26.076 62.794 29.2124C60.7429 31.7025 61.5267 35.5696 63.4387 38.1685C67.966 44.3284 74.1133 47.048 76.4686 54.9292C78.5801 61.997 77.3592 70.17 72.7714 76.026C66.1064 84.5352 53.143 87.2971 43.5262 82.3531C33.9095 77.411 28.6226 65.3729 31.3688 54.9231C32.9464 48.9242 36.8531 43.2394 36.0029 37.0955C34.3689 25.2768 20.1422 23.0403 10.5234 23.4872C8.56704 23.5778 6.36282 23.6402 4.94439 22.2895C4.20898 21.5889 3.81609 20.6106 3.48162 19.6524C2.06319 15.586 -2.12563 -1.97594 5.19624 -3.36898C7.42262 -3.79373 9.58452 -1.94574 11.827 -2.26582C14.6014 -2.66038 15.8103 -5.92757 16.3946 -8.66533C19.1872 -21.7502 18.9172 -35.9845 24.9274 -48.1978V-48.1998Z" fill="#FFC800" stroke="#FFC800" stroke-miterlimit="10"/>
</svg>
