<svg width="25" height="28" viewBox="0 0 25 28" fill="none" xmlns="http://www.w3.org/2000/svg">
<path fill-rule="evenodd" clip-rule="evenodd" d="M25 5.31199C24.9999 4.5461 24.844 3.78929 24.5429 3.09342C24.2418 2.39755 23.8026 1.77909 23.2555 1.28041C22.7084 0.781741 22.0663 0.414649 21.3732 0.204299C20.6801 -0.00605045 19.9524 -0.0546843 19.24 0.0617311L10.49 1.49217C9.3094 1.68509 8.23281 2.32071 7.45508 3.284C6.67734 4.24728 6.24986 5.47458 6.25 6.74376V18.3825C5.39353 17.9508 4.42827 17.8264 3.4995 18.028C2.57073 18.2296 1.7287 18.7462 1.10013 19.5001C0.471558 20.2541 0.0904604 21.2046 0.0141886 22.2085C-0.0620832 23.2125 0.170597 24.2156 0.677213 25.0669C1.18383 25.9183 1.93697 26.5717 2.82329 26.9289C3.7096 27.2862 4.68114 27.3279 5.59169 27.0478C6.50224 26.7677 7.30254 26.1809 7.87213 25.3758C8.44173 24.5707 8.74981 23.5907 8.75 22.5835V6.74376C8.74963 6.10894 8.96324 5.49497 9.35213 5.01305C9.74102 4.53113 10.2795 4.21313 10.87 4.11664L19.62 2.6862C19.9764 2.62796 20.3404 2.65233 20.6871 2.75762C21.0338 2.86291 21.3549 3.04663 21.6285 3.29619C21.902 3.54574 22.1216 3.85522 22.272 4.2034C22.4225 4.55157 22.5002 4.93021 22.5 5.31332V14.398C21.6435 13.9663 20.6783 13.8419 19.7495 14.0435C18.8207 14.245 17.9787 14.7617 17.3501 15.5156C16.7216 16.2696 16.3405 17.2201 16.2642 18.224C16.1879 19.228 16.4206 20.2311 16.9272 21.0824C17.4338 21.9337 18.187 22.5872 19.0733 22.9444C19.9596 23.3017 20.9311 23.3434 21.8417 23.0633C22.7522 22.7832 23.5525 22.1964 24.1221 21.3913C24.6917 20.5861 24.9998 19.6062 25 18.599V5.31199ZM22.5 18.599C22.5 18.0706 22.3025 17.5639 21.9508 17.1903C21.5992 16.8167 21.1223 16.6068 20.625 16.6068C20.1277 16.6068 19.6508 16.8167 19.2992 17.1903C18.9475 17.5639 18.75 18.0706 18.75 18.599C18.75 19.1274 18.9475 19.6341 19.2992 20.0077C19.6508 20.3814 20.1277 20.5913 20.625 20.5913C21.1223 20.5913 21.5992 20.3814 21.9508 20.0077C22.3025 19.6341 22.5 19.1274 22.5 18.599ZM6.25 22.5835C6.25 22.3219 6.2015 22.0628 6.10728 21.8211C6.01305 21.5794 5.87494 21.3598 5.70083 21.1748C5.52672 20.9898 5.32002 20.843 5.09253 20.7429C4.86505 20.6428 4.62123 20.5913 4.375 20.5913C4.12877 20.5913 3.88496 20.6428 3.65747 20.7429C3.42999 20.843 3.22329 20.9898 3.04918 21.1748C2.87507 21.3598 2.73696 21.5794 2.64273 21.8211C2.5485 22.0628 2.5 22.3219 2.5 22.5835C2.5 23.1119 2.69755 23.6186 3.04918 23.9923C3.40081 24.3659 3.87772 24.5758 4.375 24.5758C4.87228 24.5758 5.3492 24.3659 5.70083 23.9923C6.05246 23.6186 6.25 23.1119 6.25 22.5835Z" fill="#FFC800"/>
</svg>
