<svg width="25" height="32" viewBox="0 0 25 32" fill="none" xmlns="http://www.w3.org/2000/svg">
<path fill-rule="evenodd" clip-rule="evenodd" d="M11.7419 0C11.4405 0 11.1514 0.127216 10.9383 0.353662C10.7252 0.580108 10.6055 0.887235 10.6055 1.20748V19.3357C9.46908 18.3115 8.03354 17.7376 6.54353 17.7121C5.05353 17.6866 3.60131 18.2109 2.43442 19.1957C1.26753 20.1805 0.458207 21.5648 0.144405 23.1127C-0.169398 24.6606 0.0317495 26.2762 0.713557 27.6842C1.39536 29.0921 2.51563 30.2052 3.88338 30.8337C5.25114 31.4623 6.78172 31.5674 8.21422 31.131C9.64671 30.6947 10.8925 29.744 11.7391 28.441C12.5857 27.1379 12.9808 25.5633 12.8571 23.9853C12.8715 23.9068 12.8786 23.827 12.8783 23.7471V8.85484H20.8332C21.9383 8.85484 22.9981 8.38838 23.7796 7.55808C24.561 6.72777 25 5.60164 25 4.42742C25 3.25319 24.561 2.12706 23.7796 1.29676C22.9981 0.466459 21.9383 0 20.8332 0H11.7419ZM12.8783 6.43988H20.8332C21.3355 6.43988 21.8172 6.22785 22.1724 5.85044C22.5276 5.47303 22.7272 4.96116 22.7272 4.42742C22.7272 3.89368 22.5276 3.3818 22.1724 3.00439C21.8172 2.62698 21.3355 2.41496 20.8332 2.41496H12.8783V6.43988ZM6.43863 20.1246C5.33352 20.1246 4.27367 20.5911 3.49224 21.4214C2.7108 22.2517 2.2718 23.3778 2.2718 24.552C2.2718 25.7263 2.7108 26.8524 3.49224 27.6827C4.27367 28.513 5.33352 28.9795 6.43863 28.9795C7.54375 28.9795 8.6036 28.513 9.38503 27.6827C10.1665 26.8524 10.6055 25.7263 10.6055 24.552C10.6055 23.3778 10.1665 22.2517 9.38503 21.4214C8.6036 20.5911 7.54375 20.1246 6.43863 20.1246Z" fill="#FFC800"/>
</svg>
