<svg width="16" height="16" viewBox="0 0 16 16" fill="none" xmlns="http://www.w3.org/2000/svg">
<path d="M2.66665 4.00001H1.33331V13.3333C1.33331 14.0667 1.93331 14.6667 2.66665 14.6667H12V13.3333H2.66665V4.00001ZM13.3333 1.33334H5.33331C4.59998 1.33334 3.99998 1.93334 3.99998 2.66668V10.6667C3.99998 11.4 4.59998 12 5.33331 12H13.3333C14.0666 12 14.6666 11.4 14.6666 10.6667V2.66668C14.6666 1.93334 14.0666 1.33334 13.3333 1.33334ZM13.3333 10.6667H5.33331V2.66668H13.3333V10.6667ZM8.66665 10H9.99998V7.33334H12.6666V6.00001H9.99998V3.33334H8.66665V6.00001H5.99998V7.33334H8.66665V10Z" fill="#19181A"/>
</svg>
