<svg width="16" height="16" viewBox="0 0 16 16" fill="none" xmlns="http://www.w3.org/2000/svg">
<path d="M8.00004 2.66668C10.9407 2.66668 13.3334 5.05934 13.3334 8.00001C13.3334 10.9407 10.9407 13.3333 8.00004 13.3333C5.05937 13.3333 2.66671 10.9407 2.66671 8.00001C2.66671 5.05934 5.05937 2.66668 8.00004 2.66668ZM8.00004 1.33334C4.31804 1.33334 1.33337 4.31801 1.33337 8.00001C1.33337 11.682 4.31804 14.6667 8.00004 14.6667C11.682 14.6667 14.6667 11.682 14.6667 8.00001C14.6667 4.31801 11.682 1.33334 8.00004 1.33334ZM11.3334 7.33334H8.66671V4.66668H7.33337V7.33334H4.66671V8.66668H7.33337V11.3333H8.66671V8.66668H11.3334V7.33334Z" fill="#19181A"/>
</svg>
