<svg width="16" height="16" viewBox="0 0 16 16" fill="none" xmlns="http://www.w3.org/2000/svg">
<path d="M13.3333 6C13.3333 6.73637 12.7364 7.33333 12 7.33333C11.2636 7.33333 10.6667 6.73637 10.6667 6C10.6667 5.26362 11.2636 4.66666 12 4.66666C12.7364 4.66666 13.3333 5.26362 13.3333 6ZM13.3333 6L13.3333 1.33333L14.6667 2.66666M10.212 2.42066C9.08238 1.97316 7.84352 1.87917 6.65931 2.15111C5.47511 2.42305 4.40137 3.0481 3.58015 3.94359C2.75893 4.83907 2.22893 5.96278 2.06027 7.16605C1.89162 8.36931 2.09225 9.59543 2.63562 10.6822C3.179 11.7689 4.03952 12.6651 5.10332 13.2521C6.16713 13.8392 7.38409 14.0894 8.59321 13.9697C9.80233 13.85 10.9466 13.3661 11.8747 12.5819C12.8028 11.7977 13.4709 10.7502 13.7907 9.578M9.33333 8C9.33333 8.73637 8.73638 9.33333 8 9.33333C7.26362 9.33333 6.66666 8.73637 6.66666 8C6.66666 7.26362 7.26362 6.66666 8 6.66666C8.73638 6.66666 9.33333 7.26362 9.33333 8Z" stroke="#19181A" stroke-width="1.66667" stroke-linecap="round" stroke-linejoin="round"/>
</svg>
