<svg width="16" height="16" viewBox="0 0 16 16" fill="none" xmlns="http://www.w3.org/2000/svg">
<path d="M8.00004 1.33334C4.32004 1.33334 1.33337 4.32001 1.33337 8.00001C1.33337 11.68 4.32004 14.6667 8.00004 14.6667C11.68 14.6667 14.6667 11.68 14.6667 8.00001C14.6667 4.32001 11.68 1.33334 8.00004 1.33334ZM8.00004 11C6.34004 11 5.00004 9.66001 5.00004 8.00001C5.00004 6.34001 6.34004 5.00001 8.00004 5.00001C9.66004 5.00001 11 6.34001 11 8.00001C11 9.66001 9.66004 11 8.00004 11ZM8.00004 7.33334C7.63337 7.33334 7.33337 7.63334 7.33337 8.00001C7.33337 8.36668 7.63337 8.66668 8.00004 8.66668C8.36671 8.66668 8.66671 8.36668 8.66671 8.00001C8.66671 7.63334 8.36671 7.33334 8.00004 7.33334Z" fill="#19181A"/>
</svg>
