<svg width="16" height="16" viewBox="0 0 16 16" fill="none" xmlns="http://www.w3.org/2000/svg">
<path fill-rule="evenodd" clip-rule="evenodd" d="M8.81465 4.17947C8.89537 4.11214 8.98856 4.06138 9.08891 4.03008C9.18926 3.99879 9.29479 3.98758 9.39947 3.99709C9.50415 4.0066 9.60593 4.03664 9.699 4.08551C9.79206 4.13437 9.87458 4.2011 9.94185 4.28187L12.6082 7.48187C12.6785 7.56216 12.732 7.65568 12.7655 7.75694C12.7991 7.8582 12.812 7.96514 12.8037 8.07149C12.7953 8.17783 12.7657 8.28142 12.7167 8.37617C12.6677 8.47092 12.6002 8.55491 12.5183 8.6232C12.4363 8.69149 12.3416 8.7427 12.2395 8.77382C12.1375 8.80494 12.0303 8.81534 11.9242 8.80441C11.818 8.79348 11.7152 8.76144 11.6216 8.71017C11.5281 8.6589 11.4458 8.58944 11.3794 8.50587L8.71225 5.30587C8.57652 5.1429 8.51106 4.9327 8.53026 4.72147C8.54946 4.51025 8.65175 4.3153 8.81465 4.17947Z" fill="#19181A"/>
<path fill-rule="evenodd" clip-rule="evenodd" d="M8.81465 11.8083C8.65175 11.6724 8.54946 11.4775 8.53026 11.2663C8.51106 11.0551 8.57652 10.8448 8.71225 10.6819L11.3794 7.48187C11.4458 7.39831 11.5281 7.32885 11.6216 7.27758C11.7152 7.22631 11.818 7.19427 11.9242 7.18334C12.0303 7.1724 12.1375 7.1828 12.2395 7.21392C12.3416 7.24504 12.4363 7.29626 12.5183 7.36455C12.6002 7.43284 12.6677 7.51683 12.7167 7.61158C12.7657 7.70633 12.7953 7.80992 12.8037 7.91626C12.812 8.02261 12.7991 8.12955 12.7655 8.23081C12.732 8.33207 12.6785 8.42559 12.6082 8.50587L9.94185 11.7059C9.87458 11.7866 9.79206 11.8534 9.699 11.9022C9.60593 11.9511 9.50415 11.9812 9.39947 11.9907C9.29479 12.0002 9.18926 11.989 9.08891 11.9577C8.98856 11.9264 8.89537 11.8756 8.81465 11.8083Z" fill="#19181A"/>
<path fill-rule="evenodd" clip-rule="evenodd" d="M11.1938 7.99387C11.1938 8.20605 11.1096 8.40953 10.9595 8.55956C10.8095 8.70959 10.606 8.79387 10.3938 8.79387H3.99385C3.78167 8.79387 3.57819 8.70959 3.42816 8.55956C3.27813 8.40953 3.19385 8.20605 3.19385 7.99387C3.19385 7.7817 3.27813 7.57822 3.42816 7.42819C3.57819 7.27816 3.78167 7.19387 3.99385 7.19387H10.3938C10.606 7.19387 10.8095 7.27816 10.9595 7.42819C11.1096 7.57822 11.1938 7.7817 11.1938 7.99387Z" fill="#19181A"/>
</svg>
