<svg width="16" height="16" viewBox="0 0 16 16" fill="none" xmlns="http://www.w3.org/2000/svg">
<path fill-rule="evenodd" clip-rule="evenodd" d="M7.18534 11.8083C7.10462 11.8756 7.01143 11.9264 6.91108 11.9577C6.81073 11.989 6.7052 12.0002 6.60052 11.9907C6.49584 11.9812 6.39405 11.9511 6.30099 11.9022C6.20793 11.8534 6.1254 11.7866 6.05814 11.7059L3.39174 8.50587C3.3215 8.42559 3.26803 8.33207 3.23447 8.23081C3.20091 8.12955 3.18794 8.02261 3.19632 7.91626C3.2047 7.80992 3.23427 7.70633 3.28328 7.61158C3.33229 7.51683 3.39975 7.43284 3.4817 7.36455C3.56365 7.29626 3.65843 7.24504 3.76046 7.21392C3.86249 7.1828 3.96972 7.1724 4.07583 7.18334C4.18194 7.19427 4.2848 7.22631 4.37834 7.27758C4.47189 7.32885 4.55424 7.39831 4.62054 7.48187L7.28774 10.6819C7.42347 10.8448 7.48893 11.0551 7.46973 11.2663C7.45053 11.4775 7.34823 11.6724 7.18534 11.8083Z" fill="#19181A"/>
<path fill-rule="evenodd" clip-rule="evenodd" d="M7.18534 4.17947C7.34823 4.3153 7.45053 4.51025 7.46973 4.72147C7.48893 4.9327 7.42347 5.1429 7.28774 5.30587L4.62054 8.50587C4.55424 8.58944 4.47189 8.6589 4.37834 8.71017C4.2848 8.76144 4.18194 8.79348 4.07583 8.80441C3.96972 8.81534 3.86249 8.80494 3.76046 8.77382C3.65843 8.7427 3.56365 8.69149 3.4817 8.6232C3.39975 8.55491 3.33229 8.47092 3.28328 8.37617C3.23427 8.28142 3.2047 8.17783 3.19632 8.07149C3.18794 7.96514 3.20091 7.8582 3.23447 7.75694C3.26803 7.65568 3.3215 7.56216 3.39174 7.48187L6.05814 4.28187C6.1254 4.2011 6.20793 4.13437 6.30099 4.08551C6.39405 4.03664 6.49584 4.0066 6.60052 3.99709C6.7052 3.98758 6.81073 3.99879 6.91108 4.03008C7.01143 4.06138 7.10462 4.11214 7.18534 4.17947Z" fill="#19181A"/>
<path fill-rule="evenodd" clip-rule="evenodd" d="M4.80614 7.99387C4.80614 7.7817 4.89043 7.57822 5.04045 7.42819C5.19048 7.27816 5.39397 7.19387 5.60614 7.19387H12.0061C12.2183 7.19387 12.4218 7.27816 12.5718 7.42819C12.7219 7.57822 12.8061 7.7817 12.8061 7.99387C12.8061 8.20605 12.7219 8.40953 12.5718 8.55956C12.4218 8.70959 12.2183 8.79387 12.0061 8.79387H5.60614C5.39397 8.79387 5.19048 8.70959 5.04045 8.55956C4.89043 8.40953 4.80614 8.20605 4.80614 7.99387Z" fill="#19181A"/>
</svg>
