<svg width="16" height="16" viewBox="0 0 16 16" fill="none" xmlns="http://www.w3.org/2000/svg">
<path fill-rule="evenodd" clip-rule="evenodd" d="M4.18561 7.17921C4.11828 7.09849 4.06751 7.00529 4.03622 6.90494C4.00492 6.8046 3.99371 6.69907 4.00322 6.59438C4.01273 6.4897 4.04278 6.38792 4.09164 6.29486C4.14051 6.20179 4.20723 6.11927 4.28801 6.05201L7.48801 3.38561C7.56829 3.31537 7.66182 3.2619 7.76307 3.22834C7.86433 3.19478 7.97128 3.18181 8.07762 3.19019C8.18396 3.19857 8.28756 3.22813 8.38231 3.27714C8.47705 3.32615 8.56104 3.39362 8.62933 3.47557C8.69763 3.55751 8.74884 3.65229 8.77996 3.75433C8.81108 3.85636 8.82148 3.96359 8.81055 4.0697C8.79961 4.17581 8.76757 4.27866 8.7163 4.37221C8.66503 4.46575 8.59557 4.5481 8.51201 4.61441L5.31201 7.28161C5.14903 7.41734 4.93883 7.4828 4.72761 7.4636C4.51639 7.44439 4.32143 7.3421 4.18561 7.17921Z" fill="#19181A"/>
<path fill-rule="evenodd" clip-rule="evenodd" d="M11.8144 7.17921C11.6786 7.3421 11.4836 7.44439 11.2724 7.4636C11.0612 7.4828 10.851 7.41734 10.688 7.28161L7.48801 4.61441C7.40444 4.5481 7.33498 4.46575 7.28372 4.37221C7.23245 4.27866 7.2004 4.17581 7.18947 4.0697C7.17854 3.96359 7.18894 3.85636 7.22006 3.75433C7.25118 3.65229 7.30239 3.55751 7.37068 3.47557C7.43897 3.39362 7.52296 3.32615 7.61771 3.27714C7.71246 3.22813 7.81605 3.19857 7.9224 3.19019C8.02874 3.18181 8.13569 3.19478 8.23694 3.22834C8.3382 3.2619 8.43172 3.31537 8.51201 3.38561L11.712 6.05201C11.7928 6.11927 11.8595 6.20179 11.9084 6.29486C11.9572 6.38792 11.9873 6.4897 11.9968 6.59438C12.0063 6.69907 11.9951 6.8046 11.9638 6.90494C11.9325 7.00529 11.8817 7.09849 11.8144 7.17921Z" fill="#19181A"/>
<path fill-rule="evenodd" clip-rule="evenodd" d="M8.00001 4.80001C8.21218 4.80001 8.41566 4.88429 8.56569 5.03432C8.71572 5.18435 8.80001 5.38783 8.80001 5.60001V12C8.80001 12.2122 8.71572 12.4157 8.56569 12.5657C8.41566 12.7157 8.21218 12.8 8.00001 12.8C7.78783 12.8 7.58435 12.7157 7.43432 12.5657C7.28429 12.4157 7.20001 12.2122 7.20001 12V5.60001C7.20001 5.38783 7.28429 5.18435 7.43432 5.03432C7.58435 4.88429 7.78783 4.80001 8.00001 4.80001Z" fill="#19181A"/>
</svg>
