<svg width="16" height="16" viewBox="0 0 16 16" fill="none" xmlns="http://www.w3.org/2000/svg">
<path fill-rule="evenodd" clip-rule="evenodd" d="M11.8144 8.80851C11.8817 8.88923 11.9325 8.98243 11.9638 9.08277C11.9951 9.18312 12.0063 9.28865 11.9968 9.39333C11.9873 9.49802 11.9572 9.5998 11.9084 9.69286C11.8595 9.78593 11.7928 9.86845 11.712 9.93571L8.51201 12.6021C8.43172 12.6724 8.3382 12.7258 8.23694 12.7594C8.13569 12.7929 8.02874 12.8059 7.9224 12.7975C7.81605 12.7891 7.71246 12.7596 7.61771 12.7106C7.52296 12.6616 7.43897 12.5941 7.37068 12.5122C7.30239 12.4302 7.25118 12.3354 7.22006 12.2334C7.18894 12.1314 7.17854 12.0241 7.18947 11.918C7.2004 11.8119 7.23245 11.7091 7.28372 11.6155C7.33498 11.522 7.40444 11.4396 7.48801 11.3733L10.688 8.70611C10.851 8.57038 11.0612 8.50492 11.2724 8.52412C11.4836 8.54333 11.6786 8.64562 11.8144 8.80851Z" fill="#19181A"/>
<path fill-rule="evenodd" clip-rule="evenodd" d="M4.18561 8.80851C4.32143 8.64562 4.51639 8.54333 4.72761 8.52412C4.93883 8.50492 5.14903 8.57038 5.31201 8.70611L8.51201 11.3733C8.59557 11.4396 8.66503 11.522 8.7163 11.6155C8.76757 11.7091 8.79961 11.8119 8.81055 11.918C8.82148 12.0241 8.81108 12.1314 8.77996 12.2334C8.74884 12.3354 8.69763 12.4302 8.62933 12.5122C8.56104 12.5941 8.47705 12.6616 8.38231 12.7106C8.28756 12.7596 8.18396 12.7891 8.07762 12.7975C7.97128 12.8059 7.86433 12.7929 7.76307 12.7594C7.66182 12.7258 7.56829 12.6724 7.48801 12.6021L4.28801 9.93571C4.20723 9.86845 4.14051 9.78593 4.09164 9.69286C4.04278 9.5998 4.01273 9.49802 4.00322 9.39333C3.99371 9.28865 4.00492 9.18312 4.03622 9.08277C4.06751 8.98243 4.11828 8.88923 4.18561 8.80851Z" fill="#19181A"/>
<path fill-rule="evenodd" clip-rule="evenodd" d="M8.00001 11.1877C7.78784 11.1877 7.58435 11.1034 7.43432 10.9534C7.28429 10.8034 7.20001 10.5999 7.20001 10.3877V3.98771C7.20001 3.77554 7.28429 3.57206 7.43432 3.42203C7.58435 3.272 7.78784 3.18771 8.00001 3.18771C8.21218 3.18771 8.41566 3.272 8.56569 3.42203C8.71572 3.57206 8.80001 3.77554 8.80001 3.98771V10.3877C8.80001 10.5999 8.71572 10.8034 8.56569 10.9534C8.41566 11.1034 8.21218 11.1877 8.00001 11.1877Z" fill="#19181A"/>
</svg>
