<svg width="16" height="16" viewBox="0 0 16 16" fill="none" xmlns="http://www.w3.org/2000/svg">
<path d="M11.6667 13.3333C11.2 13.3333 10.8056 13.1722 10.4833 12.85C10.1611 12.5278 10 12.1333 10 11.6667C10 11.2 10.1611 10.8055 10.4833 10.4833C10.8056 10.1611 11.2 9.99999 11.6667 9.99999C11.7556 9.99999 11.8556 10.0084 11.9667 10.0253C12.0778 10.0422 12.2 10.0782 12.3333 10.1333V6.66666H14.6667V7.99999H13.3333V11.6667C13.3333 12.1333 13.1722 12.5278 12.85 12.85C12.5278 13.1722 12.1333 13.3333 11.6667 13.3333ZM7.33333 7.99999C6.6 7.99999 5.97222 7.73888 5.45 7.21666C4.92778 6.69443 4.66667 6.06666 4.66667 5.33332C4.66667 4.59999 4.92778 3.97221 5.45 3.44999C5.97222 2.92777 6.6 2.66666 7.33333 2.66666C8.06667 2.66666 8.69444 2.92777 9.21667 3.44999C9.73889 3.97221 10 4.59999 10 5.33332C10 6.06666 9.73889 6.69443 9.21667 7.21666C8.69444 7.73888 8.06667 7.99999 7.33333 7.99999ZM2 13.3333V11.4667C2 11.0778 2.09733 10.7278 2.292 10.4167C2.48667 10.1055 2.74489 9.86666 3.06667 9.69999C3.75556 9.35555 4.45556 9.09732 5.16667 8.92532C5.87778 8.75332 6.6 8.6671 7.33333 8.66666C7.8 8.66666 8.264 8.70288 8.72533 8.77532C9.18667 8.84777 9.65044 8.95599 10.1167 9.09999C9.38333 9.54443 8.92778 10.1807 8.75 11.0087C8.57222 11.8367 8.71667 12.6115 9.18333 13.3333H2Z" fill="#19181A"/>
</svg>
