<svg width="16" height="16" viewBox="0 0 16 16" fill="none" xmlns="http://www.w3.org/2000/svg">
<path d="M12.3333 6.66666H14.6667V7.99999H13.3333V11.6667C13.3333 12.1333 13.1722 12.5278 12.85 12.85C12.5278 13.1722 12.1333 13.3333 11.6667 13.3333C11.2 13.3333 10.8056 13.1722 10.4833 12.85C10.1611 12.5278 10 12.1333 10 11.6667C10 11.2 10.1611 10.8055 10.4833 10.4833C10.8056 10.1611 11.2 9.99999 11.6667 9.99999C11.7556 9.99999 11.8556 10.0084 11.9667 10.0253C12.0778 10.0422 12.2 10.0782 12.3333 10.1333V6.66666ZM2 13.3333V11.4667C2 11.0778 2.09733 10.7278 2.292 10.4167C2.48667 10.1055 2.74489 9.86666 3.06667 9.69999C3.75556 9.35555 4.45556 9.09732 5.16667 8.92532C5.87778 8.75332 6.6 8.6671 7.33333 8.66666C7.8 8.66666 8.264 8.70288 8.72533 8.77532C9.18667 8.84777 9.65044 8.95599 10.1167 9.09999C9.89444 9.23332 9.69444 9.39443 9.51667 9.58332C9.33889 9.77221 9.18333 9.97777 9.05 10.2C8.76111 10.1333 8.47511 10.0833 8.192 10.05C7.90889 10.0167 7.62267 9.99999 7.33333 9.99999C6.7 9.99999 6.07778 10.0778 5.46667 10.2333C4.85556 10.3889 4.25556 10.6111 3.66667 10.9C3.56667 10.9555 3.48622 11.0333 3.42533 11.1333C3.36444 11.2333 3.33378 11.3444 3.33333 11.4667V12H8.68333C8.70556 12.2222 8.75844 12.4444 8.842 12.6667C8.92556 12.8889 9.03933 13.1111 9.18333 13.3333H2ZM7.33333 7.99999C6.6 7.99999 5.97222 7.73888 5.45 7.21666C4.92778 6.69443 4.66667 6.06666 4.66667 5.33332C4.66667 4.59999 4.92778 3.97221 5.45 3.44999C5.97222 2.92777 6.6 2.66666 7.33333 2.66666C8.06667 2.66666 8.69444 2.92777 9.21667 3.44999C9.73889 3.97221 10 4.59999 10 5.33332C10 6.06666 9.73889 6.69443 9.21667 7.21666C8.69444 7.73888 8.06667 7.99999 7.33333 7.99999ZM7.33333 6.66666C7.7 6.66666 8.014 6.53621 8.27533 6.27532C8.53667 6.01443 8.66711 5.70043 8.66667 5.33332C8.66667 4.96666 8.53622 4.65288 8.27533 4.39199C8.01444 4.1311 7.70044 4.00043 7.33333 3.99999C6.96667 3.99999 6.65289 4.13066 6.392 4.39199C6.13111 4.65332 6.00044 4.9671 6 5.33332C6 5.69999 6.13067 6.01399 6.392 6.27532C6.65333 6.53666 6.96711 6.6671 7.33333 6.66666Z" fill="#19181A"/>
</svg>
