<svg width="16" height="16" viewBox="0 0 16 16" fill="none" xmlns="http://www.w3.org/2000/svg">
<path d="M13.4573 4.62388C13.5468 4.53748 13.6182 4.43411 13.6674 4.31981C13.7166 4.20551 13.7425 4.08256 13.7436 3.95814C13.7447 3.83372 13.7211 3.71031 13.674 3.59513C13.627 3.47995 13.5574 3.37529 13.4695 3.28727C13.3816 3.19924 13.277 3.12961 13.1618 3.08244C13.0467 3.03527 12.9233 3.0115 12.7989 3.01253C12.6745 3.01355 12.5515 3.03934 12.4371 3.0884C12.3228 3.13745 12.2194 3.20879 12.1329 3.29825L8.37712 7.05274L4.62263 3.29825C4.53684 3.20618 4.43339 3.13234 4.31844 3.08112C4.2035 3.02991 4.07941 3.00237 3.95359 3.00015C3.82777 2.99793 3.7028 3.02107 3.58611 3.0682C3.46943 3.11533 3.36344 3.18548 3.27446 3.27446C3.18548 3.36344 3.11533 3.46943 3.0682 3.58611C3.02107 3.70279 2.99793 3.82777 3.00015 3.95359C3.00237 4.07941 3.02991 4.2035 3.08112 4.31844C3.13234 4.43339 3.20618 4.53684 3.29825 4.62263L7.05024 8.37837L3.29575 12.1329C3.13022 12.3105 3.04011 12.5455 3.0444 12.7882C3.04868 13.031 3.14702 13.2626 3.31871 13.4343C3.4904 13.606 3.72202 13.7043 3.96478 13.7086C4.20754 13.7129 4.44249 13.6228 4.62013 13.4573L8.37712 9.70276L12.1316 13.4585C12.3093 13.624 12.5442 13.7141 12.787 13.7099C13.0297 13.7056 13.2614 13.6072 13.433 13.4355C13.6047 13.2639 13.7031 13.0322 13.7074 12.7895C13.7116 12.5467 13.6215 12.3118 13.456 12.1341L9.704 8.37837L13.4573 4.62388Z" fill="#19181A"/>
</svg>
