<svg width="16" height="16" viewBox="0 0 16 16" fill="none" xmlns="http://www.w3.org/2000/svg">
<path d="M6.66671 4.00001H9.33337C9.33337 3.64639 9.1929 3.30725 8.94285 3.0572C8.6928 2.80715 8.35366 2.66668 8.00004 2.66668C7.64642 2.66668 7.30728 2.80715 7.05723 3.0572C6.80718 3.30725 6.66671 3.64639 6.66671 4.00001ZM5.33337 4.00001C5.33337 3.29277 5.61433 2.61449 6.11442 2.11439C6.61452 1.6143 7.2928 1.33334 8.00004 1.33334C8.70728 1.33334 9.38556 1.6143 9.88566 2.11439C10.3858 2.61449 10.6667 3.29277 10.6667 4.00001H14C14.1769 4.00001 14.3464 4.07025 14.4714 4.19527C14.5965 4.3203 14.6667 4.48987 14.6667 4.66668C14.6667 4.84349 14.5965 5.01306 14.4714 5.13808C14.3464 5.26311 14.1769 5.33334 14 5.33334H13.412L12.8214 12.2267C12.7646 12.8923 12.46 13.5124 11.9679 13.9642C11.4759 14.4161 10.8321 14.6668 10.164 14.6667H5.83604C5.16798 14.6668 4.52422 14.4161 4.03214 13.9642C3.54006 13.5124 3.23549 12.8923 3.17871 12.2267L2.58804 5.33334H2.00004C1.82323 5.33334 1.65366 5.26311 1.52864 5.13808C1.40361 5.01306 1.33337 4.84349 1.33337 4.66668C1.33337 4.48987 1.40361 4.3203 1.52864 4.19527C1.65366 4.07025 1.82323 4.00001 2.00004 4.00001H5.33337ZM10 8.00001C10 7.8232 9.9298 7.65363 9.80478 7.52861C9.67975 7.40358 9.51019 7.33334 9.33337 7.33334C9.15656 7.33334 8.98699 7.40358 8.86197 7.52861C8.73695 7.65363 8.66671 7.8232 8.66671 8.00001V10.6667C8.66671 10.8435 8.73695 11.0131 8.86197 11.1381C8.98699 11.2631 9.15656 11.3333 9.33337 11.3333C9.51019 11.3333 9.67975 11.2631 9.80478 11.1381C9.9298 11.0131 10 10.8435 10 10.6667V8.00001ZM6.66671 7.33334C6.4899 7.33334 6.32033 7.40358 6.1953 7.52861C6.07028 7.65363 6.00004 7.8232 6.00004 8.00001V10.6667C6.00004 10.8435 6.07028 11.0131 6.1953 11.1381C6.32033 11.2631 6.4899 11.3333 6.66671 11.3333C6.84352 11.3333 7.01309 11.2631 7.13811 11.1381C7.26314 11.0131 7.33337 10.8435 7.33337 10.6667V8.00001C7.33337 7.8232 7.26314 7.65363 7.13811 7.52861C7.01309 7.40358 6.84352 7.33334 6.66671 7.33334Z" fill="#19181A"/>
</svg>
