<svg width="16" height="16" viewBox="0 0 16 16" fill="none" xmlns="http://www.w3.org/2000/svg">
<path fill-rule="evenodd" clip-rule="evenodd" d="M2.66667 8.00067C2.66867 7.99 2.678 7.93133 2.73 7.816C2.78733 7.68867 2.88 7.52867 3.01267 7.344C3.278 6.97533 3.67467 6.54933 4.176 6.14533C5.18467 5.33067 6.54133 4.66667 8 4.66667C9.45867 4.66667 10.8153 5.33067 11.824 6.144C12.3253 6.548 12.722 6.974 12.9873 7.34267C13.1207 7.52733 13.2127 7.68733 13.27 7.81467C13.322 7.93 13.3313 7.98867 13.3333 7.99933C13.3313 8.01 13.322 8.06933 13.27 8.18467C13.1913 8.3508 13.0966 8.50887 12.9873 8.65667C12.722 9.02533 12.3253 9.45133 11.824 9.85533C10.816 10.6693 9.45933 11.3333 8 11.3333C6.54133 11.3333 5.18467 10.6693 4.176 9.856C3.67467 9.452 3.278 9.026 3.01267 8.65733C2.90327 8.5096 2.8086 8.35151 2.73 8.18533C2.70086 8.12683 2.67957 8.06474 2.66667 8.00067ZM8 3.33333C6.14467 3.33333 4.50133 4.16933 3.33933 5.106C2.75467 5.57667 2.27267 6.08867 1.93067 6.564C1.76872 6.78399 1.62914 7.01961 1.514 7.26733C1.41533 7.48667 1.33333 7.74067 1.33333 8C1.33333 8.25867 1.41533 8.514 1.51333 8.73267C1.61667 8.96067 1.76 9.19933 1.93067 9.436C2.27267 9.91133 2.75467 10.4227 3.33933 10.894C4.50133 11.8307 6.14467 12.6667 8 12.6667C9.85533 12.6667 11.4987 11.8307 12.6607 10.894C13.2453 10.4233 13.7273 9.91133 14.0693 9.436C14.2407 9.19867 14.3833 8.96067 14.486 8.73267C14.5847 8.514 14.6667 8.25933 14.6667 8C14.6667 7.74133 14.5847 7.486 14.4867 7.26733C14.3712 7.01966 14.2314 6.78406 14.0693 6.564C13.7273 6.08867 13.2453 5.57733 12.6607 5.106C11.4987 4.16933 9.85533 3.33333 8 3.33333ZM7.33333 8C7.33333 7.82319 7.40357 7.65362 7.5286 7.5286C7.65362 7.40357 7.82319 7.33333 8 7.33333C8.17681 7.33333 8.34638 7.40357 8.4714 7.5286C8.59643 7.65362 8.66667 7.82319 8.66667 8C8.66667 8.17681 8.59643 8.34638 8.4714 8.4714C8.34638 8.59643 8.17681 8.66667 8 8.66667C7.82319 8.66667 7.65362 8.59643 7.5286 8.4714C7.40357 8.34638 7.33333 8.17681 7.33333 8ZM8 6C7.46957 6 6.96086 6.21071 6.58579 6.58579C6.21071 6.96086 6 7.46957 6 8C6 8.53043 6.21071 9.03914 6.58579 9.41421C6.96086 9.78929 7.46957 10 8 10C8.53043 10 9.03914 9.78929 9.41421 9.41421C9.78929 9.03914 10 8.53043 10 8C10 7.46957 9.78929 6.96086 9.41421 6.58579C9.03914 6.21071 8.53043 6 8 6Z" fill="#19181A"/>
</svg>
