<svg width="16" height="16" viewBox="0 0 16 16" fill="none" xmlns="http://www.w3.org/2000/svg">
<path fill-rule="evenodd" clip-rule="evenodd" d="M8.00004 2.66668C5.05452 2.66668 2.66671 5.05449 2.66671 8.00001C2.66671 10.9455 5.05452 13.3333 8.00004 13.3333C10.9456 13.3333 13.3334 10.9455 13.3334 8.00001C13.3334 5.05449 10.9456 2.66668 8.00004 2.66668ZM1.33337 8.00001C1.33337 4.31811 4.31814 1.33334 8.00004 1.33334C11.6819 1.33334 14.6667 4.31811 14.6667 8.00001C14.6667 11.6819 11.6819 14.6667 8.00004 14.6667C4.31814 14.6667 1.33337 11.6819 1.33337 8.00001Z" fill="#19181A"/>
<path fill-rule="evenodd" clip-rule="evenodd" d="M6.00004 3.11391V4.00001C6.00004 4.17682 6.07028 4.34639 6.1953 4.47141C6.32033 4.59644 6.4899 4.66667 6.66671 4.66667H7.33337C7.86381 4.66667 8.37251 4.87739 8.74759 5.25246C9.12266 5.62753 9.33337 6.13624 9.33337 6.66667C9.33337 6.84348 9.40361 7.01305 9.52864 7.13808C9.65366 7.2631 9.82323 7.33334 10 7.33334C10.1769 7.33334 10.3464 7.2631 10.4714 7.13808C10.5965 7.01305 10.6667 6.84348 10.6667 6.66667C10.6667 6.13624 10.8774 5.62753 11.2525 5.25246C11.492 5.013 11.7859 4.84054 12.1052 4.74713C11.1305 3.58011 10.0009 3.05204 8.94223 2.86473C7.81719 2.66568 6.74571 2.84828 6.00004 3.11391ZM9.17452 1.55179C10.8511 1.84843 12.6031 2.82045 13.905 4.99034C14.0286 5.1963 14.0318 5.4528 13.9135 5.66181C13.7952 5.87081 13.5736 6.00001 13.3334 6.00001H12.6667C12.4899 6.00001 12.3203 6.07025 12.1953 6.19527C12.0703 6.32029 12 6.48986 12 6.66667C12 7.19711 11.7893 7.70582 11.4143 8.08089C11.0392 8.45596 10.5305 8.66667 10 8.66667C9.46961 8.66667 8.9609 8.45596 8.58583 8.08089C8.21075 7.70581 8.00004 7.19711 8.00004 6.66667C8.00004 6.48986 7.9298 6.32029 7.80478 6.19527C7.67975 6.07025 7.51018 6.00001 7.33337 6.00001H6.66671C6.13627 6.00001 5.62757 5.78929 5.25249 5.41422C4.87742 5.03915 4.66671 4.53044 4.66671 4.00001V2.66667C4.66671 2.40768 4.8167 2.17213 5.05138 2.06258C5.98924 1.62479 7.52803 1.26048 9.17452 1.55179ZM1.33337 8.00001C1.33337 7.63182 1.63185 7.33334 2.00004 7.33334H3.33337C3.86381 7.33334 4.37252 7.54405 4.74759 7.91913C5.12266 8.2942 5.33337 8.80291 5.33337 9.33334C5.33337 9.51015 5.40361 9.67972 5.52864 9.80475C5.65366 9.92977 5.82323 10 6.00004 10C6.53047 10 7.03918 10.2107 7.41425 10.5858C7.78933 10.9609 8.00004 11.4696 8.00004 12V13.3333C8.00004 13.5174 7.92397 13.6932 7.78984 13.8192C7.65571 13.9452 7.47546 14.0102 7.29179 13.9987C4.96153 13.8531 3.44622 12.8374 2.52897 11.5857C1.6316 10.3612 1.33337 8.95018 1.33337 8.00001ZM2.72412 8.66667C2.83011 9.31767 3.09381 10.1008 3.60444 10.7976C4.19946 11.6096 5.1504 12.3349 6.66671 12.588V12C6.66671 11.8232 6.59647 11.6536 6.47145 11.5286C6.34642 11.4036 6.17685 11.3333 6.00004 11.3333C5.46961 11.3333 4.9609 11.1226 4.58583 10.7476C4.21075 10.3725 4.00004 9.86377 4.00004 9.33334C4.00004 9.15653 3.9298 8.98696 3.80478 8.86194C3.67975 8.73691 3.51019 8.66667 3.33337 8.66667H2.72412ZM11.3334 11.3333C11.1566 11.3333 10.987 11.4036 10.862 11.5286C10.7369 11.6536 10.6667 11.8232 10.6667 12V12.1237C10.858 11.9929 11.0579 11.8506 11.2581 11.7002C11.4178 11.5802 11.5747 11.4574 11.7254 11.3333H11.3334ZM9.91916 10.5858C10.2942 10.2107 10.8029 10 11.3334 10H13.3334C13.5859 10 13.8167 10.1427 13.9297 10.3685C14.0426 10.5944 14.0182 10.8647 13.8667 11.0667C13.409 11.6769 12.7093 12.2778 12.0588 12.7663C11.399 13.2619 10.7423 13.677 10.3309 13.9121C10.1245 14.0301 9.87101 14.0292 9.66545 13.91C9.45989 13.7907 9.33337 13.571 9.33337 13.3333V12C9.33337 11.4696 9.54409 10.9609 9.91916 10.5858Z" fill="#19181A"/>
<path d="M5.33337 4.00001V2.66668C7.00004 1.88868 10.9334 1.33334 13.3334 5.33334H12.6667C12.3131 5.33334 11.9739 5.47382 11.7239 5.72387C11.4739 5.97392 11.3334 6.31305 11.3334 6.66668C11.3334 7.0203 11.1929 7.35944 10.9429 7.60949C10.6928 7.85953 10.3537 8.00001 10 8.00001C9.64642 8.00001 9.30728 7.85953 9.05723 7.60949C8.80718 7.35944 8.66671 7.0203 8.66671 6.66668C8.66671 6.31305 8.52623 5.97392 8.27618 5.72387C8.02613 5.47382 7.687 5.33334 7.33337 5.33334H6.66671C6.31309 5.33334 5.97395 5.19287 5.7239 4.94282C5.47385 4.69277 5.33337 4.35363 5.33337 4.00001ZM11.3334 10.6667H13.3334C12.5334 11.7333 10.778 12.8887 10 13.3333V12C10 11.6464 10.1405 11.3073 10.3906 11.0572C10.6406 10.8072 10.9798 10.6667 11.3334 10.6667ZM7.33337 12V13.3333C3.06671 13.0667 2.00004 9.66668 2.00004 8.00001H3.33337C3.687 8.00001 4.02613 8.14049 4.27618 8.39053C4.52623 8.64058 4.66671 8.97972 4.66671 9.33334C4.66671 9.68697 4.80718 10.0261 5.05723 10.2762C5.30728 10.5262 5.64642 10.6667 6.00004 10.6667C6.35366 10.6667 6.6928 10.8072 6.94285 11.0572C7.1929 11.3073 7.33337 11.6464 7.33337 12Z" fill="#19181A"/>
</svg>
