<svg width="16" height="16" viewBox="0 0 16 16" fill="none" xmlns="http://www.w3.org/2000/svg">
<path d="M2 8C2 11.3137 4.68629 14 8 14C11.3137 14 14 11.3137 14 8C14 4.68629 11.3137 2 8 2C4.68629 2 2 4.68629 2 8ZM2 8H3.33333C3.68696 8 4.02609 8.14048 4.27614 8.39052C4.52619 8.64057 4.66667 8.97971 4.66667 9.33333C4.66667 9.68696 4.80714 10.0261 5.05719 10.2761C5.30724 10.5262 5.64638 10.6667 6 10.6667C6.35362 10.6667 6.69276 10.8071 6.94281 11.0572C7.19286 11.3072 7.33333 11.6464 7.33333 12V13.3333M5.33333 2.66667V4C5.33333 4.35362 5.47381 4.69276 5.72386 4.94281C5.97391 5.19286 6.31304 5.33333 6.66667 5.33333H7.33333C7.68696 5.33333 8.02609 5.47381 8.27614 5.72386C8.52619 5.97391 8.66667 6.31304 8.66667 6.66667C8.66667 7.02029 8.80714 7.35943 9.05719 7.60948C9.30724 7.85952 9.64638 8 10 8C10.3536 8 10.6928 7.85952 10.9428 7.60948C11.1929 7.35943 11.3333 7.02029 11.3333 6.66667C11.3333 6.31304 11.4738 5.97391 11.7239 5.72386C11.9739 5.47381 12.313 5.33333 12.6667 5.33333H13.3333M13.3333 10.6667H11.3333C10.9797 10.6667 10.6406 10.8071 10.3905 11.0572C10.1405 11.3072 10 11.6464 10 12V13.3333" stroke="#19181A" stroke-width="1.33333" stroke-linecap="round" stroke-linejoin="round"/>
</svg>
