<svg width="16" height="16" viewBox="0 0 16 16" fill="none" xmlns="http://www.w3.org/2000/svg">
<path d="M3.66671 2C3.93192 2 4.18628 2.10536 4.37381 2.29289C4.56135 2.48043 4.66671 2.73478 4.66671 3V13C4.66671 13.2652 4.56135 13.5196 4.37381 13.7071C4.18628 13.8946 3.93192 14 3.66671 14H2.33337C2.06816 14 1.8138 13.8946 1.62627 13.7071C1.43873 13.5196 1.33337 13.2652 1.33337 13V3C1.33337 2.73478 1.43873 2.48043 1.62627 2.29289C1.8138 2.10536 2.06816 2 2.33337 2H3.66671ZM7.66671 2C7.93192 2 8.18628 2.10536 8.37381 2.29289C8.56135 2.48043 8.66671 2.73478 8.66671 3V13C8.66671 13.2652 8.56135 13.5196 8.37381 13.7071C8.18628 13.8946 7.93192 14 7.66671 14H6.33337C6.06816 14 5.8138 13.8946 5.62627 13.7071C5.43873 13.5196 5.33337 13.2652 5.33337 13V3C5.33337 2.73478 5.43873 2.48043 5.62627 2.29289C5.8138 2.10536 6.06816 2 6.33337 2H7.66671ZM12.5207 4.08267L14.6634 12.4287C14.696 12.5559 14.7033 12.6883 14.6848 12.8183C14.6663 12.9483 14.6224 13.0734 14.5555 13.1865C14.4887 13.2995 14.4002 13.3983 14.2952 13.4771C14.1901 13.556 14.0706 13.6134 13.9434 13.646L12.6927 13.966C12.5655 13.9987 12.4331 14.006 12.3031 13.9874C12.1731 13.9689 12.048 13.925 11.9349 13.8581C11.8219 13.7913 11.7231 13.7028 11.6443 13.5978C11.5654 13.4927 11.508 13.3732 11.4754 13.246L9.33271 4.90267C9.30004 4.77546 9.29275 4.64306 9.31126 4.51304C9.32977 4.38301 9.3737 4.25791 9.44056 4.14487C9.50742 4.03183 9.59589 3.93306 9.70093 3.85421C9.80596 3.77537 9.9255 3.71798 10.0527 3.68533L11.3034 3.36333C11.5603 3.29773 11.8327 3.33669 12.0609 3.47166C12.2891 3.60664 12.4545 3.82594 12.5207 4.08267Z" fill="#19181A"/>
</svg>
