<svg width="16" height="16" viewBox="0 0 16 16" fill="none" xmlns="http://www.w3.org/2000/svg">
<path d="M2.66671 2H3.33337C4.03604 2 4.61204 2.544 4.66337 3.23333L4.66671 3.33333V12.6667C4.66649 13.0029 4.53932 13.3266 4.31064 13.5731C4.08196 13.8196 3.76864 13.9706 3.43337 13.996L3.33337 14H2.66671C2.33037 14 2.00646 13.8729 1.75984 13.6442C1.51322 13.4155 1.36209 13.102 1.33671 12.7667L1.33337 12.6667V3.33333C1.33337 2.63067 1.87737 2.05467 2.56671 2.00333L2.66671 2ZM6.66671 2H7.33337C8.03604 2 8.61204 2.544 8.66337 3.23333L8.66671 3.33333V12.6667C8.66649 13.0029 8.53932 13.3266 8.31064 13.5731C8.08196 13.8196 7.76864 13.9706 7.43337 13.996L7.33337 14H6.66671C6.33037 14 6.00646 13.8729 5.75984 13.6442C5.51322 13.4155 5.36209 13.102 5.33671 12.7667L5.33337 12.6667V3.33333C5.33337 2.63067 5.87737 2.05467 6.56671 2.00333L6.66671 2ZM11.316 3.33333C11.876 3.33333 12.388 3.68733 12.576 4.23067L12.6074 4.33533L14.6174 12.166C14.7009 12.4917 14.6582 12.8369 14.498 13.1325C14.3378 13.428 14.0718 13.6522 13.7534 13.76L13.6574 13.7887L13.0114 13.954C12.6871 14.0368 12.3436 13.9948 12.0488 13.8363C11.7541 13.6777 11.5297 13.4142 11.42 13.098L11.3887 12.9947L9.37804 5.16467C9.29443 4.83872 9.33716 4.49322 9.49765 4.19746C9.65814 3.9017 9.92453 3.67756 10.2434 3.57L10.3387 3.54133L10.984 3.376C11.0925 3.34782 11.204 3.33348 11.316 3.33333ZM3.33337 3H2.66671C2.58873 3.0001 2.51324 3.02749 2.45333 3.07741C2.39342 3.12734 2.35287 3.19665 2.33871 3.27333L2.33337 3.33333V12.6667C2.33337 12.8293 2.45137 12.9667 2.60671 12.9947L2.66671 13H3.33337C3.49671 13 3.63337 12.8813 3.66137 12.7267L3.66671 12.6667V3.33333C3.6666 3.25535 3.63922 3.17986 3.58929 3.11996C3.53937 3.06005 3.47006 3.0195 3.39337 3.00533L3.33337 3ZM7.33337 3H6.66671C6.58873 3.0001 6.51324 3.02749 6.45333 3.07741C6.39342 3.12734 6.35287 3.19665 6.33871 3.27333L6.33337 3.33333V12.6667C6.33337 12.8293 6.45137 12.9667 6.60671 12.9947L6.66671 13H7.33337C7.49671 13 7.63337 12.8813 7.66137 12.7267L7.66671 12.6667V3.33333C7.6666 3.25535 7.63922 3.17986 7.58929 3.11996C7.53937 3.06005 7.47006 3.0195 7.39337 3.00533L7.33337 3ZM11.3167 4.33333L11.2747 4.336L11.2327 4.34467L10.5874 4.50933C10.5126 4.5281 10.4467 4.57229 10.401 4.63433C10.3553 4.69636 10.3325 4.77238 10.3367 4.84933L10.3467 4.916L12.3574 12.746C12.3758 12.8174 12.4174 12.8807 12.4757 12.926C12.534 12.9712 12.6056 12.9958 12.6794 12.996L12.7214 12.994L12.7627 12.986L13.4094 12.8193C13.4848 12.7999 13.5511 12.7546 13.5966 12.6914C13.6422 12.6282 13.6641 12.5511 13.6587 12.4733L13.6487 12.4147L11.6387 4.58333C11.6202 4.51196 11.5785 4.44873 11.5203 4.40351C11.462 4.35829 11.3904 4.33361 11.3167 4.33333Z" fill="#19181A"/>
</svg>
