<svg width="16" height="16" viewBox="0 0 16 16" fill="none" xmlns="http://www.w3.org/2000/svg">
<path d="M12 5.33332H11.3333V3.99999C11.3333 2.15999 9.83996 0.666656 7.99996 0.666656C6.15996 0.666656 4.66663 2.15999 4.66663 3.99999V5.33332H3.99996C3.26663 5.33332 2.66663 5.93332 2.66663 6.66666V13.3333C2.66663 14.0667 3.26663 14.6667 3.99996 14.6667H12C12.7333 14.6667 13.3333 14.0667 13.3333 13.3333V6.66666C13.3333 5.93332 12.7333 5.33332 12 5.33332ZM7.99996 11.3333C7.26663 11.3333 6.66663 10.7333 6.66663 9.99999C6.66663 9.26666 7.26663 8.66666 7.99996 8.66666C8.73329 8.66666 9.33329 9.26666 9.33329 9.99999C9.33329 10.7333 8.73329 11.3333 7.99996 11.3333ZM5.99996 5.33332V3.99999C5.99996 2.89332 6.89329 1.99999 7.99996 1.99999C9.10663 1.99999 9.99996 2.89332 9.99996 3.99999V5.33332H5.99996Z" fill="#19181A"/>
</svg>
