<svg width="76" height="113" viewBox="0 0 76 113" fill="none" xmlns="http://www.w3.org/2000/svg">
<path d="M24.4228 63.5991C28.877 63.5444 32.8008 64.8787 36.8069 66.9268C36.8069 45.5613 32.8634 9.20922 36.8069 3.18122C40.7503 -2.84677 60.7845 4.5057 70.1811 7.20646C79.5777 9.90723 75.1453 27.8139 67.5217 25.8223C59.898 23.8308 51.5708 20.3788 48.9972 20.3788C46.4237 20.3788 47.1329 28.2095 47.1328 28.8889C47.1328 48.1513 49.017 67.9233 48.989 87.1857C48.9736 97.8192 43.3646 106.544 33.7109 110.33C16.2691 117.17 0.792866 103.355 0.504471 88.6427C0.262542 76.3011 9.87012 65.0915 21.6006 63.7427C22.4784 63.6418 23.3682 63.6451 24.4228 63.5991Z" fill="#FFC800"/>
</svg>
