<svg width="16" height="16" viewBox="0 0 16 16" fill="none" xmlns="http://www.w3.org/2000/svg">
<path d="M14.6666 5.33332V7.33332H13.3333V5.33332H2.66665V12H9.18665C8.91998 12.3933 8.75331 12.84 8.69331 13.3333H2.66665C2.31302 13.3333 1.97389 13.1928 1.72384 12.9428C1.47379 12.6928 1.33331 12.3536 1.33331 12V3.99999C1.33331 3.25999 1.92665 2.66666 2.66665 2.66666H6.66665L7.99998 3.99999H13.3333C13.6869 3.99999 14.0261 4.14047 14.2761 4.39051C14.5262 4.64056 14.6666 4.9797 14.6666 5.33332ZM12.3333 8.66666V12.14C12.1062 12.0405 11.8598 11.993 11.612 12.0008C11.3641 12.0087 11.1212 12.0717 10.9008 12.1853C10.6805 12.299 10.4882 12.4603 10.3381 12.6577C10.188 12.855 10.0839 13.0834 10.0332 13.3261C9.98252 13.5688 9.98664 13.8197 10.0452 14.0606C10.1039 14.3015 10.2155 14.5263 10.372 14.7186C10.5285 14.9109 10.7259 15.0659 10.9499 15.1722C11.1738 15.2786 11.4187 15.3336 11.6666 15.3333C12.1087 15.3333 12.5326 15.1577 12.8452 14.8452C13.1577 14.5326 13.3333 14.1087 13.3333 13.6667V9.99999H14.6666V8.66666H12.3333Z" fill="#19181A"/>
</svg>
