<svg width="16" height="16" viewBox="0 0 16 16" fill="none" xmlns="http://www.w3.org/2000/svg">
<path d="M15.3395 4.81883C15.3395 4.64586 15.2708 4.47998 15.1485 4.35767C15.0261 4.23537 14.8603 4.16666 14.6873 4.16666C14.5143 4.16666 14.3484 4.23537 14.2261 4.35767C14.1038 4.47998 14.0351 4.64586 14.0351 4.81883V13.5145C14.0351 13.6874 14.1038 13.8533 14.2261 13.9756C14.3484 14.0979 14.5143 14.1667 14.6873 14.1667C14.8603 14.1667 15.0261 14.0979 15.1485 13.9756C15.2708 13.8533 15.3395 13.6874 15.3395 13.5145V4.81883ZM11.6038 8.24926C12.2038 8.71361 12.2038 9.6197 11.6038 10.084C9.74461 11.5226 7.66857 12.6564 5.45338 13.4432L5.04817 13.5875C4.29164 13.8554 3.49164 13.344 3.38991 12.5632C3.09692 10.3083 3.09692 8.025 3.38991 5.77013C3.49251 4.98927 4.29164 4.47796 5.04817 4.74666L5.45338 4.89013C7.66856 5.6769 9.7446 6.81075 11.6038 8.24926Z" fill="#19181A"/>
</svg>
