<svg width="16" height="16" viewBox="0 0 16 16" fill="none" xmlns="http://www.w3.org/2000/svg">
<path fill-rule="evenodd" clip-rule="evenodd" d="M11.7876 8.07796C12.5007 8.62927 12.5007 9.70405 11.7876 10.2562C9.91 11.7087 7.8134 12.8534 5.57634 13.6475L5.17112 13.7919C4.28156 14.1084 3.34504 13.5058 3.22504 12.591C2.92938 10.3388 2.92938 7.99448 3.22504 5.74231C3.34504 4.82753 4.28156 4.22492 5.17112 4.54144L5.57634 4.68492C7.8135 5.47962 9.9101 6.62493 11.7876 8.07796ZM10.9894 9.22405C10.9981 9.21721 11.0051 9.2085 11.0099 9.19855C11.0147 9.18861 11.0172 9.17771 11.0172 9.16666C11.0172 9.15561 11.0147 9.1447 11.0099 9.13476C11.0051 9.12482 10.9981 9.1161 10.9894 9.10927C9.22117 7.74106 7.24667 6.66267 5.13982 5.91448L4.7346 5.77013C4.71099 5.76297 4.68609 5.76107 4.66166 5.76458C4.63723 5.76808 4.61387 5.7769 4.59323 5.79042C4.57258 5.80394 4.55515 5.82182 4.54216 5.8428C4.52918 5.86379 4.52096 5.88737 4.51808 5.91187C4.23746 8.07266 4.23746 10.2607 4.51808 12.4214C4.53286 12.5345 4.64851 12.5936 4.73547 12.5632L5.13982 12.4188C7.24677 11.671 9.22156 10.5927 10.9894 9.22405ZM14.7381 4.16666C14.911 4.16666 15.0769 4.23537 15.1992 4.35767C15.3215 4.47998 15.3903 4.64586 15.3903 4.81883V13.5145C15.3903 13.6874 15.3215 13.8533 15.1992 13.9756C15.0769 14.0979 14.911 14.1667 14.7381 14.1667C14.5651 14.1667 14.3992 14.0979 14.2769 13.9756C14.1546 13.8533 14.0859 13.6874 14.0859 13.5145V4.81883C14.0859 4.64586 14.1546 4.47998 14.2769 4.35767C14.3992 4.23537 14.5651 4.16666 14.7381 4.16666Z" fill="#19181A"/>
</svg>
