<svg width="16" height="16" viewBox="0 0 16 16" fill="none" xmlns="http://www.w3.org/2000/svg">
<path fill-rule="evenodd" clip-rule="evenodd" d="M6.60591 10.2554C5.89287 9.70405 5.89287 8.62927 6.60591 8.07709C8.48355 6.62465 10.5802 5.47993 12.8172 4.68579L13.2224 4.54144C14.112 4.22492 15.0485 4.82753 15.1685 5.74231C15.4642 7.99448 15.4642 10.3388 15.1685 12.591C15.0485 13.5058 14.112 14.1084 13.2224 13.7919L12.8172 13.6484C10.5801 12.8537 8.48345 11.7084 6.60591 10.2554ZM7.40417 9.10927C7.39549 9.1161 7.38847 9.12482 7.38365 9.13476C7.37882 9.1447 7.37631 9.15561 7.37631 9.16666C7.37631 9.17771 7.37882 9.18861 7.38365 9.19855C7.38847 9.2085 7.39549 9.21721 7.40417 9.22405C9.17239 10.5923 11.1469 11.6706 13.2537 12.4188L13.659 12.5632C13.6826 12.5703 13.7075 12.5722 13.7319 12.5687C13.7563 12.5652 13.7797 12.5564 13.8003 12.5429C13.821 12.5294 13.8384 12.5115 13.8514 12.4905C13.8644 12.4695 13.8726 12.4459 13.8755 12.4214C14.1561 10.2607 14.1561 8.07266 13.8755 5.91187C13.8607 5.79883 13.745 5.7397 13.6581 5.77013L13.2537 5.91448C11.1468 6.66231 9.172 7.74057 7.40417 9.10927ZM3.65548 14.1667C3.48251 14.1667 3.31663 14.0979 3.19432 13.9756C3.07201 13.8533 3.0033 13.6874 3.0033 13.5145L3.0033 4.81883C3.0033 4.64586 3.07201 4.47998 3.19432 4.35767C3.31663 4.23537 3.48251 4.16666 3.65548 4.16666C3.82844 4.16666 3.99433 4.23537 4.11663 4.35767C4.23894 4.47998 4.30765 4.64586 4.30765 4.81883L4.30765 13.5145C4.30765 13.6874 4.23894 13.8533 4.11663 13.9756C3.99433 14.0979 3.82844 14.1667 3.65548 14.1667Z" fill="#19181A"/>
</svg>
