<svg width="16" height="16" viewBox="0 0 16 16" fill="none" xmlns="http://www.w3.org/2000/svg">
<path d="M3.17017 13.5145C3.17017 13.6874 3.23888 13.8533 3.36119 13.9756C3.4835 14.0979 3.64938 14.1667 3.82235 14.1667C3.99531 14.1667 4.1612 14.0979 4.2835 13.9756C4.40581 13.8533 4.47452 13.6874 4.47452 13.5145L4.47452 4.81883C4.47452 4.64586 4.40581 4.47998 4.2835 4.35767C4.1612 4.23537 3.99531 4.16666 3.82235 4.16666C3.64938 4.16666 3.4835 4.23537 3.36119 4.35767C3.23888 4.47998 3.17017 4.64586 3.17017 4.81883L3.17017 13.5145ZM6.90582 10.084C6.30582 9.6197 6.30582 8.71361 6.90582 8.24927C8.76503 6.81074 10.8411 5.67688 13.0563 4.89014L13.4615 4.74579C14.218 4.47796 15.018 4.98927 15.1197 5.77013C15.4127 8.02501 15.4127 10.3083 15.1197 12.5632C15.0171 13.344 14.218 13.8554 13.4615 13.5867L13.0563 13.4432C10.8411 12.6564 8.76504 11.5226 6.90582 10.084Z" fill="#19181A"/>
</svg>
