<svg width="16" height="16" viewBox="0 0 16 16" fill="none" xmlns="http://www.w3.org/2000/svg">
<path d="M9.00001 5.33333H8.00001V8.66667L10.8533 10.36L11.3333 9.55333L9.00001 8.16667V5.33333ZM8.66667 2C7.07537 2 5.54925 2.63214 4.42403 3.75736C3.29881 4.88258 2.66667 6.4087 2.66667 8H0.666672L3.30667 10.6867L6.00001 8H4.00001C4.00001 6.76232 4.49167 5.57534 5.36684 4.70017C6.24201 3.825 7.429 3.33333 8.66667 3.33333C9.90435 3.33333 11.0913 3.825 11.9665 4.70017C12.8417 5.57534 13.3333 6.76232 13.3333 8C13.3333 9.23768 12.8417 10.4247 11.9665 11.2998C11.0913 12.175 9.90435 12.6667 8.66667 12.6667C7.38001 12.6667 6.21334 12.14 5.37334 11.2933L4.42667 12.24C4.98099 12.8004 5.64146 13.2447 6.36947 13.5469C7.09748 13.8491 7.87844 14.0031 8.66667 14C10.258 14 11.7841 13.3679 12.9093 12.2426C14.0345 11.1174 14.6667 9.5913 14.6667 8C14.6667 6.4087 14.0345 4.88258 12.9093 3.75736C11.7841 2.63214 10.258 2 8.66667 2Z" fill="#19181A"/>
</svg>
