<svg width="16" height="16" viewBox="0 0 16 16" fill="none" xmlns="http://www.w3.org/2000/svg">
<path fill-rule="evenodd" clip-rule="evenodd" d="M11.6152 2.19919C11.7406 2.10147 11.8997 2.05754 12.0575 2.07704C12.2153 2.09654 12.3589 2.17788 12.4568 2.30319L13.6944 3.88879C13.7923 4.01429 13.8364 4.17355 13.8169 4.33153C13.7974 4.48951 13.7159 4.63327 13.5904 4.73119C13.4649 4.82911 13.3057 4.87316 13.1477 4.85366C12.9897 4.83415 12.8459 4.75269 12.748 4.62719L11.512 3.03999C11.4143 2.91456 11.3704 2.75547 11.3899 2.59767C11.4094 2.43987 11.4907 2.29626 11.616 2.19839" fill="#19181A"/>
<path fill-rule="evenodd" clip-rule="evenodd" d="M13.5864 3.78159C13.5238 3.73364 13.4524 3.6985 13.3762 3.67817C13.3 3.65785 13.2206 3.65274 13.1424 3.66315C13.0642 3.67355 12.9889 3.69925 12.9207 3.7388C12.8524 3.77834 12.7927 3.83094 12.7448 3.89359L11.508 5.50719C11.4572 5.56943 11.4194 5.64124 11.3968 5.71837C11.3743 5.79549 11.3674 5.87637 11.3767 5.95618C11.386 6.036 11.4113 6.11313 11.451 6.18301C11.4906 6.25289 11.544 6.31408 11.6077 6.36296C11.6715 6.41184 11.7445 6.44741 11.8223 6.46756C11.9 6.48771 11.9811 6.49203 12.0606 6.48026C12.1401 6.4685 12.2164 6.44088 12.285 6.39906C12.3536 6.35723 12.4131 6.30205 12.46 6.23679L13.6976 4.62319C13.7456 4.56059 13.7807 4.48916 13.801 4.41297C13.8213 4.33678 13.8265 4.25734 13.8161 4.17917C13.8057 4.10101 13.7799 4.02567 13.7404 3.95745C13.7009 3.88922 13.6491 3.82947 13.5864 3.78159Z" fill="#19181A"/>
<path fill-rule="evenodd" clip-rule="evenodd" d="M1.98401 7.45839C1.98401 6.39752 2.40544 5.38011 3.15558 4.62996C3.90573 3.87982 4.92314 3.45839 5.98401 3.45839H12.272C12.4842 3.45839 12.6877 3.54268 12.8377 3.6927C12.9877 3.84273 13.072 4.04622 13.072 4.25839C13.072 4.47056 12.9877 4.67405 12.8377 4.82407C12.6877 4.9741 12.4842 5.05839 12.272 5.05839H5.98401C5.34749 5.05839 4.73704 5.31125 4.28695 5.76133C3.83687 6.21142 3.58401 6.82187 3.58401 7.45839V8.25839C3.58401 8.47056 3.49972 8.67405 3.34969 8.82408C3.19966 8.9741 2.99618 9.05839 2.78401 9.05839C2.57184 9.05839 2.36835 8.9741 2.21832 8.82408C2.06829 8.67405 1.98401 8.47056 1.98401 8.25839V7.45839ZM4.39041 13.8008C4.32828 13.8493 4.2572 13.8851 4.18123 13.9061C4.10526 13.9271 4.02589 13.933 3.94766 13.9233C3.86943 13.9137 3.79387 13.8887 3.72529 13.8498C3.65672 13.811 3.59648 13.759 3.54801 13.6968L2.31201 12.112C2.2616 12.0501 2.22404 11.9788 2.20155 11.9022C2.17905 11.8256 2.17207 11.7453 2.181 11.6659C2.18994 11.5866 2.21461 11.5099 2.25358 11.4402C2.29256 11.3705 2.34504 11.3093 2.40796 11.2602C2.47087 11.2111 2.54296 11.175 2.62 11.1541C2.69704 11.1331 2.77748 11.1278 2.85661 11.1384C2.93574 11.1489 3.01196 11.1752 3.08082 11.2156C3.14967 11.256 3.20978 11.3097 3.25761 11.3736L4.49521 12.96C4.59292 13.0854 4.63686 13.2445 4.61736 13.4023C4.59786 13.5601 4.51652 13.7037 4.39121 13.8016" fill="#19181A"/>
<path fill-rule="evenodd" clip-rule="evenodd" d="M2.41921 12.2184C2.54558 12.315 2.70513 12.3574 2.86279 12.3364C3.02046 12.3154 3.16333 12.2327 3.26001 12.1064L4.49761 10.4928C4.58857 10.3662 4.62667 10.2091 4.60384 10.0549C4.58101 9.90063 4.49904 9.76134 4.37529 9.6665C4.25153 9.57166 4.09573 9.52872 3.94086 9.54676C3.78599 9.56481 3.64424 9.64243 3.54561 9.76319L2.30721 11.376C2.25922 11.4385 2.22402 11.5099 2.20363 11.5861C2.18325 11.6622 2.17807 11.7417 2.1884 11.8198C2.19872 11.898 2.22435 11.9734 2.26382 12.0416C2.30329 12.1099 2.35582 12.1697 2.41841 12.2176" fill="#19181A"/>
<path fill-rule="evenodd" clip-rule="evenodd" d="M14.0216 8.54159C14.0216 9.60246 13.6002 10.6199 12.85 11.37C12.0999 12.1202 11.0825 12.5416 10.0216 12.5416H3.73281C3.52064 12.5416 3.31715 12.4573 3.16712 12.3073C3.01709 12.1572 2.93281 11.9538 2.93281 11.7416C2.93281 11.5294 3.01709 11.3259 3.16712 11.1759C3.31715 11.0259 3.52064 10.9416 3.73281 10.9416H10.0208C10.6573 10.9416 11.2678 10.6887 11.7179 10.2386C12.168 9.78856 12.4208 9.17811 12.4208 8.54159V7.74159C12.4208 7.52942 12.5051 7.32593 12.6551 7.1759C12.8052 7.02588 13.0086 6.94159 13.2208 6.94159C13.433 6.94159 13.6365 7.02588 13.7865 7.1759C13.9365 7.32593 14.0208 7.52942 14.0208 7.74159L14.0216 8.54159Z" fill="#19181A"/>
</svg>
