<svg width="16" height="16" viewBox="0 0 16 16" fill="none" xmlns="http://www.w3.org/2000/svg">
<path d="M2.01035 7C1.99288 7.15143 1.98401 7.30445 1.98401 7.45839V8.25839C1.98401 8.47056 2.06829 8.67405 2.21832 8.82408C2.36835 8.9741 2.57184 9.05839 2.78401 9.05839C2.99618 9.05839 3.19966 8.9741 3.34969 8.82408C3.49972 8.67405 3.58401 8.47056 3.58401 8.25839V7.45839C3.58401 7.3034 3.599 7.14996 3.62818 7H2.01035Z" fill="#19181A"/>
<path d="M5.00001 5.26938C5.30651 5.13161 5.64148 5.05839 5.98401 5.05839H11.852L11.508 5.50719C11.4572 5.56943 11.4194 5.64124 11.3968 5.71837C11.3743 5.79549 11.3674 5.87637 11.3767 5.95618C11.386 6.036 11.4113 6.11313 11.451 6.18301C11.4906 6.25289 11.544 6.31408 11.6077 6.36296C11.6715 6.41184 11.7445 6.44741 11.8223 6.46756C11.9 6.48771 11.9811 6.49203 12.0606 6.48026C12.1401 6.46849 12.2164 6.44088 12.285 6.39906C12.3536 6.35723 12.4131 6.30205 12.46 6.23679L13.6976 4.62319C13.736 4.5731 13.7661 4.51734 13.7871 4.45803C13.8015 4.41737 13.8115 4.37499 13.8169 4.33153C13.8364 4.17355 13.7923 4.01429 13.6944 3.88879L12.4568 2.30319C12.3589 2.17788 12.2153 2.09654 12.0575 2.07704C11.8997 2.05754 11.7406 2.10147 11.6152 2.19919L11.616 2.19839C11.4907 2.29626 11.4094 2.43987 11.3899 2.59767C11.3704 2.75547 11.4143 2.91456 11.512 3.03999L11.8378 3.45839H5.98401C5.64934 3.45839 5.319 3.50033 5.00001 3.5813V5.26938Z" fill="#19181A"/>
<path d="M4.18123 13.9061C4.2572 13.8851 4.32828 13.8493 4.39041 13.8008L4.39121 13.8016C4.51652 13.7037 4.59786 13.5601 4.61736 13.4023C4.63686 13.2445 4.59292 13.0854 4.49521 12.96L4.1688 12.5416H10.0216C11.0825 12.5416 12.0999 12.1202 12.85 11.37C13.6002 10.6199 14.0216 9.60246 14.0216 8.54159L14.0208 7.74159C14.0208 7.52942 13.9365 7.32593 13.7865 7.1759C13.6365 7.02588 13.433 6.94159 13.2208 6.94159C13.0086 6.94159 12.8052 7.02588 12.6551 7.1759C12.5051 7.32593 12.4208 7.52942 12.4208 7.74159V8.54159C12.4208 9.17811 12.168 9.78856 11.7179 10.2386C11.2678 10.6887 10.6573 10.9416 10.0208 10.9416H4.15339L4.49761 10.4928C4.58857 10.3662 4.62667 10.2091 4.60384 10.0549C4.58101 9.90063 4.49904 9.76134 4.37529 9.6665C4.25153 9.57166 4.09573 9.52872 3.94086 9.54676C3.78599 9.56481 3.64424 9.64243 3.54561 9.76319L2.37455 11.2883C2.32632 11.332 2.28544 11.3832 2.25358 11.4402C2.21461 11.5099 2.18994 11.5866 2.181 11.6659C2.17207 11.7453 2.17905 11.8256 2.20155 11.9022C2.22172 11.9709 2.25401 12.0353 2.29683 12.0925C2.30554 12.1046 2.31469 12.1163 2.32426 12.1277L3.54801 13.6968C3.59648 13.759 3.65672 13.811 3.72529 13.8498C3.79387 13.8887 3.86943 13.9137 3.94766 13.9233C4.02589 13.933 4.10526 13.9271 4.18123 13.9061Z" fill="#19181A"/>
<path d="M3.72601 2C4.00215 2 4.22601 2.22386 4.22601 2.5V5.49C4.22601 5.76614 4.00215 5.99 3.72601 5.99H3.50101C3.22487 5.99 3.00101 5.76614 3.00101 5.49V3.49135C3.00101 3.24217 2.77182 3.05605 2.52795 3.10719C2.31162 3.15255 2.09979 3.00643 2.06043 2.78893C2.02585 2.5978 2.13306 2.40614 2.31539 2.33918L3.15555 2.03065C3.21076 2.01037 3.2691 2 3.32791 2H3.72601Z" fill="#19181A"/>
</svg>
