<svg width="16" height="16" viewBox="0 0 16 16" fill="none" xmlns="http://www.w3.org/2000/svg">
<path d="M15.0306 10.9694C15.1005 11.0391 15.156 11.1219 15.1939 11.213C15.2317 11.3042 15.2512 11.4019 15.2512 11.5006C15.2512 11.5993 15.2317 11.6971 15.1939 11.7882C15.156 11.8794 15.1005 11.9622 15.0306 12.0319L13.5306 13.5319C13.3897 13.6728 13.1986 13.7519 12.9994 13.7519C12.8001 13.7519 12.609 13.6728 12.4681 13.5319C12.3272 13.391 12.2481 13.1999 12.2481 13.0006C12.2481 12.8014 12.3272 12.6103 12.4681 12.4694L12.6875 12.25H12.5569C11.8009 12.2492 11.0559 12.0683 10.3837 11.7224C9.7115 11.3764 9.13134 10.8753 8.69125 10.2606L6.08625 6.61125C5.7852 6.19057 5.38825 5.84766 4.92828 5.61094C4.46831 5.37422 3.95856 5.25049 3.44125 5.25H2C1.80109 5.25 1.61032 5.17099 1.46967 5.03033C1.32902 4.88968 1.25 4.69892 1.25 4.5C1.25 4.30109 1.32902 4.11033 1.46967 3.96967C1.61032 3.82902 1.80109 3.75 2 3.75H3.44125C4.19726 3.75084 4.9422 3.93171 5.61441 4.27766C6.28663 4.6236 6.86679 5.12467 7.30688 5.73938L9.91375 9.38875C10.2148 9.80944 10.6118 10.1523 11.0717 10.3891C11.5317 10.6258 12.0414 10.7495 12.5588 10.75H12.6875L12.4675 10.5306C12.3266 10.3897 12.2474 10.1986 12.2474 9.99938C12.2474 9.80012 12.3266 9.60903 12.4675 9.46813C12.6084 9.32723 12.7995 9.24808 12.9987 9.24808C13.198 9.24808 13.3891 9.32723 13.53 9.46813L15.0306 10.9694ZM9.05437 6.43063C9.20407 6.56155 9.39963 6.62765 9.59806 6.61441C9.79649 6.60117 9.98153 6.50966 10.1125 6.36C10.4176 6.01131 10.7937 5.73188 11.2156 5.54043C11.6375 5.34899 12.0954 5.24997 12.5588 5.25H12.6875L12.4675 5.46938C12.3266 5.61028 12.2474 5.80137 12.2474 6.00063C12.2474 6.19989 12.3266 6.39098 12.4675 6.53188C12.6084 6.67278 12.7995 6.75193 12.9987 6.75193C13.198 6.75193 13.3891 6.67278 13.53 6.53188L15.03 5.03188C15.0999 4.9622 15.1554 4.87941 15.1933 4.78824C15.2311 4.69708 15.2506 4.59934 15.2506 4.50063C15.2506 4.40192 15.2311 4.30418 15.1933 4.21302C15.1554 4.12185 15.0999 4.03906 15.03 3.96938L13.53 2.46938C13.3891 2.32848 13.198 2.24933 12.9987 2.24933C12.7995 2.24933 12.6084 2.32848 12.4675 2.46938C12.3266 2.61028 12.2474 2.80137 12.2474 3.00063C12.2474 3.19989 12.3266 3.39098 12.4675 3.53188L12.6875 3.75H12.5569C11.8796 3.75033 11.2102 3.89549 10.5936 4.17576C9.97699 4.45603 9.42747 4.86492 8.98188 5.375C8.85196 5.52481 8.78665 5.71996 8.80024 5.91778C8.81383 6.1156 8.9052 6.3 9.05437 6.43063ZM6.94562 9.56938C6.79593 9.43846 6.60037 9.37236 6.40194 9.3856C6.20351 9.39884 6.01847 9.49035 5.8875 9.64001C5.58243 9.9887 5.20633 10.2681 4.78443 10.4596C4.36252 10.651 3.90456 10.75 3.44125 10.75H2C1.80109 10.75 1.61032 10.829 1.46967 10.9697C1.32902 11.1103 1.25 11.3011 1.25 11.5C1.25 11.6989 1.32902 11.8897 1.46967 12.0303C1.61032 12.171 1.80109 12.25 2 12.25H3.44125C4.11855 12.2497 4.78795 12.1045 5.40454 11.8242C6.02113 11.544 6.57066 11.1351 7.01625 10.625C7.14639 10.4754 7.21202 10.2804 7.19879 10.0826C7.18555 9.8848 7.09453 9.70027 6.94562 9.56938Z" fill="#19181A"/>
</svg>
