<svg width="16" height="16" viewBox="0 0 16 16" fill="none" xmlns="http://www.w3.org/2000/svg">
<path d="M7.99996 2.66666C8.7072 2.66666 9.38548 2.94761 9.88558 3.4477C10.3857 3.9478 10.6666 4.62608 10.6666 5.33332C10.6666 6.04057 10.3857 6.71884 9.88558 7.21894C9.38548 7.71904 8.7072 7.99999 7.99996 7.99999C7.29272 7.99999 6.61444 7.71904 6.11434 7.21894C5.61424 6.71884 5.33329 6.04057 5.33329 5.33332C5.33329 4.62608 5.61424 3.9478 6.11434 3.4477C6.61444 2.94761 7.29272 2.66666 7.99996 2.66666ZM7.99996 3.99999C7.64634 3.99999 7.3072 4.14047 7.05715 4.39051C6.8071 4.64056 6.66663 4.9797 6.66663 5.33332C6.66663 5.68695 6.8071 6.02608 7.05715 6.27613C7.3072 6.52618 7.64634 6.66666 7.99996 6.66666C8.35358 6.66666 8.69272 6.52618 8.94277 6.27613C9.19282 6.02608 9.33329 5.68695 9.33329 5.33332C9.33329 4.9797 9.19282 4.64056 8.94277 4.39051C8.69272 4.14047 8.35358 3.99999 7.99996 3.99999ZM7.99996 8.66666C9.77996 8.66666 13.3333 9.55332 13.3333 11.3333V13.3333H2.66663V11.3333C2.66663 9.55332 6.21996 8.66666 7.99996 8.66666ZM7.99996 9.93332C6.01996 9.93332 3.93329 10.9067 3.93329 11.3333V12.0667H12.0666V11.3333C12.0666 10.9067 9.97996 9.93332 7.99996 9.93332Z" fill="#19181A"/>
</svg>
