<svg width="16" height="16" viewBox="0 0 16 16" fill="none" xmlns="http://www.w3.org/2000/svg">
<path d="M7.99996 2.66666C8.7072 2.66666 9.38548 2.94761 9.88558 3.4477C10.3857 3.9478 10.6666 4.62608 10.6666 5.33332C10.6666 6.04057 10.3857 6.71884 9.88558 7.21894C9.38548 7.71904 8.7072 7.99999 7.99996 7.99999C7.29272 7.99999 6.61444 7.71904 6.11434 7.21894C5.61424 6.71884 5.33329 6.04057 5.33329 5.33332C5.33329 4.62608 5.61424 3.9478 6.11434 3.4477C6.61444 2.94761 7.29272 2.66666 7.99996 2.66666ZM7.99996 9.33332C10.9466 9.33332 13.3333 10.5267 13.3333 12V13.3333H2.66663V12C2.66663 10.5267 5.05329 9.33332 7.99996 9.33332Z" fill="#19181A"/>
</svg>
